<svg width="553" height="101" viewBox="0 0 553 101" fill="none" xmlns="http://www.w3.org/2000/svg">
<path d="M527.835 94V29.985H536.39V39.189L534.915 37.419C536.41 34.7837 538.396 32.758 540.874 31.342C543.352 29.926 546.224 29.218 549.488 29.218H552.261V37.773H547.718C544.296 37.773 541.543 38.835 539.458 40.959C537.413 43.083 536.39 45.9347 536.39 49.514V94H527.835Z" fill="url(#paint0_linear_599_8591)"/>
<path d="M495.135 95.416C491.123 95.416 487.602 94.5507 484.574 92.82C481.545 91.0893 479.165 88.6703 477.435 85.563C475.704 82.4163 474.839 78.7583 474.839 74.589V49.278C474.839 45.1873 475.704 41.5883 477.435 38.481C479.165 35.3343 481.545 32.8957 484.574 31.165C487.602 29.395 491.123 28.51 495.135 28.51C501.153 28.51 506.01 30.4177 509.708 34.233C513.405 38.0483 515.254 43.0633 515.254 49.278V74.589C515.254 80.8037 513.405 85.8383 509.708 89.693C506.01 93.5083 501.153 95.416 495.135 95.416ZM495.135 86.861C498.714 86.861 501.526 85.7597 503.572 83.557C505.656 81.3543 506.699 78.4633 506.699 74.884V48.983C506.699 45.4037 505.656 42.5323 503.572 40.369C501.526 38.1663 498.714 37.065 495.135 37.065C491.555 37.065 488.703 38.1663 486.579 40.369C484.455 42.5323 483.394 45.4037 483.394 48.983V74.884C483.394 78.4633 484.455 81.3543 486.579 83.557C488.703 85.7597 491.555 86.861 495.135 86.861Z" fill="url(#paint1_linear_599_8591)"/>
<path d="M463.92 94.708C457.823 94.708 452.926 92.7807 449.229 88.926C445.571 85.032 443.742 79.8203 443.742 73.291V37.95H432.237V29.867H443.742V13.76H452.297V29.867H468.227V37.95H452.297V73.291C452.297 77.185 453.359 80.312 455.483 82.672C457.607 84.9927 460.419 86.153 463.92 86.153H468.227V94.708H463.92Z" fill="url(#paint2_linear_599_8591)"/>
<path d="M403.315 95.416C397.415 95.416 392.852 93.7837 389.627 90.519C386.401 87.2543 384.789 83.1243 384.789 78.129C384.789 75.0217 385.359 72.4453 386.5 70.4C387.64 68.3153 389.096 66.624 390.866 65.326C392.675 64.028 394.583 62.9857 396.589 62.199C398.988 61.2157 401.427 60.4487 403.905 59.898C406.422 59.308 408.743 58.6983 410.867 58.069C412.991 57.4003 414.702 56.4957 416 55.355C417.298 54.2143 417.947 52.6017 417.947 50.517V48.983C417.947 45.4037 416.865 42.5323 414.702 40.369C412.578 38.1663 409.746 37.065 406.206 37.065C402.626 37.065 399.794 38.1663 397.71 40.369C395.664 42.5323 394.642 45.4037 394.642 48.983V50.753H386.087V49.278C386.087 43.0633 387.935 38.0483 391.633 34.233C395.33 30.4177 400.188 28.51 406.206 28.51C410.178 28.51 413.679 29.395 416.708 31.165C419.776 32.8957 422.175 35.3147 423.906 38.422C425.636 41.5293 426.502 45.148 426.502 49.278V94H417.947V85.15L419.363 87.038C417.868 89.7127 415.764 91.7777 413.05 93.233C410.336 94.6883 407.091 95.416 403.315 95.416ZM405.085 87.274C409.097 87.274 412.243 86.153 414.525 83.911C416.806 81.6297 417.947 78.3847 417.947 74.176V62.848C415.547 64.3427 412.873 65.3653 409.923 65.916C406.973 66.4273 404.16 67.1353 401.486 68.04C399.126 68.8267 397.179 69.9477 395.645 71.403C394.111 72.819 393.344 74.8447 393.344 77.48C393.344 80.3513 394.366 82.7113 396.412 84.56C398.457 86.3693 401.348 87.274 405.085 87.274Z" fill="url(#paint3_linear_599_8591)"/>
<path d="M358.172 95.416C354.16 95.416 350.639 94.5507 347.611 92.82C344.582 91.0893 342.202 88.6703 340.472 85.563C338.741 82.4163 337.876 78.7583 337.876 74.589V49.278C337.876 45.1873 338.741 41.5883 340.472 38.481C342.202 35.3343 344.582 32.8957 347.611 31.165C350.639 29.395 354.16 28.51 358.172 28.51C364.19 28.51 369.047 30.4177 372.745 34.233C376.442 38.0483 378.291 43.0633 378.291 49.278V50.458H369.736V48.983C369.736 45.4037 368.693 42.5323 366.609 40.369C364.563 38.1663 361.751 37.065 358.172 37.065C354.592 37.065 351.741 38.1663 349.617 40.369C347.493 42.5323 346.431 45.4037 346.431 48.983V74.884C346.431 78.4633 347.493 81.3543 349.617 83.557C351.741 85.7597 354.592 86.861 358.172 86.861C361.751 86.861 364.563 85.7597 366.609 83.557C368.693 81.3543 369.736 78.4633 369.736 74.884V73.409H378.291V74.589C378.291 80.8037 376.442 85.8383 372.745 89.693C369.047 93.5083 364.19 95.416 358.172 95.416Z" fill="url(#paint4_linear_599_8591)"/>
<path d="M307.063 95.416C303.051 95.416 299.53 94.5507 296.502 92.82C293.473 91.0893 291.093 88.6703 289.363 85.563C287.632 82.4163 286.767 78.7583 286.767 74.589V49.278C286.767 45.1873 287.632 41.5883 289.363 38.481C291.093 35.3343 293.473 32.8957 296.502 31.165C299.53 29.395 303.051 28.51 307.063 28.51C313.081 28.51 317.938 30.4177 321.636 34.233C325.333 38.0483 327.182 43.0633 327.182 49.278V74.589C327.182 80.8037 325.333 85.8383 321.636 89.693C317.938 93.5083 313.081 95.416 307.063 95.416ZM307.063 86.861C310.642 86.861 313.454 85.7597 315.5 83.557C317.584 81.3543 318.627 78.4633 318.627 74.884V48.983C318.627 45.4037 317.584 42.5323 315.5 40.369C313.454 38.1663 310.642 37.065 307.063 37.065C303.483 37.065 300.632 38.1663 298.508 40.369C296.384 42.5323 295.322 45.4037 295.322 48.983V74.884C295.322 78.4633 296.384 81.3543 298.508 83.557C300.632 85.7597 303.483 86.861 307.063 86.861Z" fill="url(#paint5_linear_599_8591)"/>
<path d="M265.663 94V5.5H274.218V94H265.663Z" fill="url(#paint6_linear_599_8591)"/>
<path d="M229.854 94L211.564 29.985H220.709L236.049 84.855H233.984L249.206 29.985H258.351L240.238 94H229.854Z" fill="url(#paint7_linear_599_8591)"/>
<path d="M186.463 95.416C182.451 95.416 178.931 94.5507 175.902 92.82C172.873 91.0893 170.494 88.6703 168.763 85.563C167.032 82.4163 166.167 78.7583 166.167 74.589V49.278C166.167 45.1873 167.032 41.5883 168.763 38.481C170.494 35.3343 172.873 32.8957 175.902 31.165C178.931 29.395 182.451 28.51 186.463 28.51C192.481 28.51 197.339 30.4177 201.036 34.233C204.733 38.0483 206.582 43.0633 206.582 49.278V63.261H173.011V55.001H198.027V48.983C198.027 45.4037 196.985 42.5323 194.9 40.369C192.855 38.1663 190.042 37.065 186.463 37.065C182.884 37.065 180.032 38.1663 177.908 40.369C175.784 42.5323 174.722 45.4037 174.722 48.983V74.884C174.722 78.4633 175.784 81.3543 177.908 83.557C180.032 85.7597 182.884 86.861 186.463 86.861C190.042 86.861 192.855 85.7597 194.9 83.557C196.985 81.3543 198.027 78.4633 198.027 74.884V73.409H206.582V74.589C206.582 80.8037 204.733 85.8383 201.036 89.693C197.339 93.5083 192.481 95.416 186.463 95.416Z" fill="url(#paint8_linear_599_8591)"/>
<path d="M112.384 94V5.5H132.444C138.777 5.5 143.851 7.506 147.666 11.518C151.481 15.4907 153.389 20.7613 153.389 27.33V72.17C153.389 78.6993 151.481 83.97 147.666 87.982C143.851 91.994 138.777 94 132.444 94H112.384ZM121.234 85.15H132.444C136.102 85.15 139.032 83.97 141.235 81.61C143.438 79.2107 144.539 76.064 144.539 72.17V27.33C144.539 23.436 143.438 20.309 141.235 17.949C139.032 15.5497 136.102 14.35 132.444 14.35H121.234V85.15Z" fill="url(#paint9_linear_599_8591)"/>
<path d="M21.4881 4.05995C8.74339 10.3465 0 23.2808 0 38.2162C0 41.7434 0.455983 45.3634 1.27282 48.9988C16.25 43.2207 27.8498 37.229 32.5 34.1216C35.4965 32.1193 36.6867 27.8593 34.919 24.2874C32.1344 18.6606 27.1975 11.699 21.4881 4.05995Z" fill="url(#paint10_linear_599_8591)"/>
<path d="M21.4881 4.05995C8.74339 10.3465 0 23.2808 0 38.2162C0 41.7434 0.455983 45.3634 1.27282 48.9988C16.25 43.2207 27.8498 37.229 32.5 34.1216C35.4965 32.1193 36.6867 27.8593 34.919 24.2874C32.1344 18.6606 27.1975 11.699 21.4881 4.05995Z" fill="url(#paint11_radial_599_8591)" fill-opacity="0.2"/>
<path d="M5.49378 61.7543C14.4995 82.6845 32.0915 101 39 101C44.2443 101 55.6449 90.4458 64.7726 76.2054C59.9752 65.2327 55.2784 55.5372 45.5 44.5856C44.2071 43.1376 41.3923 42.1219 39.4643 42.4859C33.3377 43.6427 21.3724 50.4863 5.49378 61.7543Z" fill="url(#paint12_linear_599_8591)"/>
<path d="M5.49378 61.7543C14.4995 82.6845 32.0915 101 39 101C44.2443 101 55.6449 90.4458 64.7726 76.2054C59.9752 65.2327 55.2784 55.5372 45.5 44.5856C44.2071 43.1376 41.3923 42.1219 39.4643 42.4859C33.3377 43.6427 21.3724 50.4863 5.49378 61.7543Z" fill="url(#paint13_radial_599_8591)" fill-opacity="0.2"/>
<path d="M71.1697 64.7115C75.2546 56.0844 78 46.8708 78 38.2162C78 32.0478 76.5086 26.2208 73.8599 21.0624C68.5939 23.8246 64.113 26.4367 60.4678 28.8648C54.9232 32.3673 53.6724 36.3941 57.0366 42.4859C60.4009 48.5777 65.4856 56.3391 71.1697 64.7115Z" fill="url(#paint14_linear_599_8591)"/>
<path d="M71.1697 64.7115C75.2546 56.0844 78 46.8708 78 38.2162C78 32.0478 76.5086 26.2208 73.8599 21.0624C68.5939 23.8246 64.113 26.4367 60.4678 28.8648C54.9232 32.3673 53.6724 36.3941 57.0366 42.4859C60.4009 48.5777 65.4856 56.3391 71.1697 64.7115Z" fill="url(#paint15_radial_599_8591)" fill-opacity="0.2"/>
<path d="M67.9527 12.6116C63.0897 16.0348 58.7312 18.9535 54.9232 21.0615C50.4466 23.5397 45.1858 22.0623 42.5774 17.7207C39.8649 13.2058 36.7622 7.09951 33.4797 0.379885C35.2831 0.129508 37.1261 0 39 0C50.4877 0 60.8155 4.86703 67.9527 12.6116Z" fill="url(#paint16_linear_599_8591)"/>
<path d="M67.9527 12.6116C63.0897 16.0348 58.7312 18.9535 54.9232 21.0615C50.4466 23.5397 45.1858 22.0623 42.5774 17.7207C39.8649 13.2058 36.7622 7.09951 33.4797 0.379885C35.2831 0.129508 37.1261 0 39 0C50.4877 0 60.8155 4.86703 67.9527 12.6116Z" fill="url(#paint17_radial_599_8591)" fill-opacity="0.2"/>
<defs>
<linearGradient id="paint0_linear_599_8591" x1="541.29" y1="-24.1834" x2="541.29" y2="125.516" gradientUnits="userSpaceOnUse">
<stop stop-color="white"/>
<stop offset="0.3125" stop-color="#00A4C9"/>
<stop offset="0.484375" stop-color="#006EA6"/>
<stop offset="0.833333" stop-color="#0E5781"/>
</linearGradient>
<linearGradient id="paint1_linear_599_8591" x1="497.101" y1="-26.6422" x2="497.101" y2="127.965" gradientUnits="userSpaceOnUse">
<stop stop-color="white"/>
<stop offset="0.3125" stop-color="#00A4C9"/>
<stop offset="0.484375" stop-color="#006EA6"/>
<stop offset="0.833333" stop-color="#0E5781"/>
</linearGradient>
<linearGradient id="paint2_linear_599_8591" x1="452.062" y1="-52.9674" x2="452.062" y2="134.088" gradientUnits="userSpaceOnUse">
<stop stop-color="white"/>
<stop offset="0.3125" stop-color="#00A4C9"/>
<stop offset="0.484375" stop-color="#006EA6"/>
<stop offset="0.833333" stop-color="#0E5781"/>
</linearGradient>
<linearGradient id="paint3_linear_599_8591" x1="407.766" y1="-26.6422" x2="407.766" y2="127.965" gradientUnits="userSpaceOnUse">
<stop stop-color="white"/>
<stop offset="0.3125" stop-color="#00A4C9"/>
<stop offset="0.484375" stop-color="#006EA6"/>
<stop offset="0.833333" stop-color="#0E5781"/>
</linearGradient>
<linearGradient id="paint4_linear_599_8591" x1="360.138" y1="-26.6422" x2="360.138" y2="127.965" gradientUnits="userSpaceOnUse">
<stop stop-color="white"/>
<stop offset="0.3125" stop-color="#00A4C9"/>
<stop offset="0.484375" stop-color="#006EA6"/>
<stop offset="0.833333" stop-color="#0E5781"/>
</linearGradient>
<linearGradient id="paint5_linear_599_8591" x1="309.029" y1="-26.6422" x2="309.029" y2="127.965" gradientUnits="userSpaceOnUse">
<stop stop-color="white"/>
<stop offset="0.3125" stop-color="#00A4C9"/>
<stop offset="0.484375" stop-color="#006EA6"/>
<stop offset="0.833333" stop-color="#0E5781"/>
</linearGradient>
<linearGradient id="paint6_linear_599_8591" x1="270.376" y1="-67.4527" x2="270.376" y2="137.054" gradientUnits="userSpaceOnUse">
<stop stop-color="white"/>
<stop offset="0.3125" stop-color="#00A4C9"/>
<stop offset="0.484375" stop-color="#006EA6"/>
<stop offset="0.833333" stop-color="#0E5781"/>
</linearGradient>
<linearGradient id="paint7_linear_599_8591" x1="237.336" y1="-22.7841" x2="237.336" y2="125.142" gradientUnits="userSpaceOnUse">
<stop stop-color="white"/>
<stop offset="0.3125" stop-color="#00A4C9"/>
<stop offset="0.484375" stop-color="#006EA6"/>
<stop offset="0.833333" stop-color="#0E5781"/>
</linearGradient>
<linearGradient id="paint8_linear_599_8591" x1="188.43" y1="-26.6422" x2="188.43" y2="127.965" gradientUnits="userSpaceOnUse">
<stop stop-color="white"/>
<stop offset="0.3125" stop-color="#00A4C9"/>
<stop offset="0.484375" stop-color="#006EA6"/>
<stop offset="0.833333" stop-color="#0E5781"/>
</linearGradient>
<linearGradient id="paint9_linear_599_8591" x1="134.971" y1="-67.4527" x2="134.972" y2="137.054" gradientUnits="userSpaceOnUse">
<stop stop-color="white"/>
<stop offset="0.3125" stop-color="#00A4C9"/>
<stop offset="0.484375" stop-color="#006EA6"/>
<stop offset="0.833333" stop-color="#0E5781"/>
</linearGradient>
<linearGradient id="paint10_linear_599_8591" x1="42.9661" y1="-83.2568" x2="42.9662" y2="150.135" gradientUnits="userSpaceOnUse">
<stop stop-color="white"/>
<stop offset="0.3125" stop-color="#00A4C9"/>
<stop offset="0.484375" stop-color="#006EA6"/>
<stop offset="0.833333" stop-color="#0E5781"/>
</linearGradient>
<radialGradient id="paint11_radial_599_8591" cx="0" cy="0" r="1" gradientUnits="userSpaceOnUse" gradientTransform="translate(45.4702 32.3673) rotate(94.9118) scale(43.38 37.0459)">
<stop offset="0.515" stop-color="white"/>
<stop offset="1" stop-color="white" stop-opacity="0"/>
</radialGradient>
<linearGradient id="paint12_linear_599_8591" x1="42.9661" y1="-83.2568" x2="42.9662" y2="150.135" gradientUnits="userSpaceOnUse">
<stop stop-color="white"/>
<stop offset="0.3125" stop-color="#00A4C9"/>
<stop offset="0.484375" stop-color="#006EA6"/>
<stop offset="0.833333" stop-color="#0E5781"/>
</linearGradient>
<radialGradient id="paint13_radial_599_8591" cx="0" cy="0" r="1" gradientUnits="userSpaceOnUse" gradientTransform="translate(45.4702 32.3673) rotate(94.9118) scale(43.38 37.0459)">
<stop offset="0.515" stop-color="white"/>
<stop offset="1" stop-color="white" stop-opacity="0"/>
</radialGradient>
<linearGradient id="paint14_linear_599_8591" x1="42.9661" y1="-83.2568" x2="42.9662" y2="150.135" gradientUnits="userSpaceOnUse">
<stop stop-color="white"/>
<stop offset="0.3125" stop-color="#00A4C9"/>
<stop offset="0.484375" stop-color="#006EA6"/>
<stop offset="0.833333" stop-color="#0E5781"/>
</linearGradient>
<radialGradient id="paint15_radial_599_8591" cx="0" cy="0" r="1" gradientUnits="userSpaceOnUse" gradientTransform="translate(45.4702 32.3673) rotate(94.9118) scale(43.38 37.0459)">
<stop offset="0.515" stop-color="white"/>
<stop offset="1" stop-color="white" stop-opacity="0"/>
</radialGradient>
<linearGradient id="paint16_linear_599_8591" x1="42.9661" y1="-83.2568" x2="42.9662" y2="150.135" gradientUnits="userSpaceOnUse">
<stop stop-color="white"/>
<stop offset="0.3125" stop-color="#00A4C9"/>
<stop offset="0.484375" stop-color="#006EA6"/>
<stop offset="0.833333" stop-color="#0E5781"/>
</linearGradient>
<radialGradient id="paint17_radial_599_8591" cx="0" cy="0" r="1" gradientUnits="userSpaceOnUse" gradientTransform="translate(45.4702 32.3673) rotate(94.9118) scale(43.38 37.0459)">
<stop offset="0.515" stop-color="white"/>
<stop offset="1" stop-color="white" stop-opacity="0"/>
</radialGradient>
</defs>
</svg>
